<mxfile host="app.diagrams.net" modified="2021-06-03T09:02:57.458Z" agent="5.0 (Macintosh; Intel Mac OS X 10_15_7) AppleWebKit/605.1.15 (KHTML, like Gecko) Version/14.1.1 Safari/605.1.15" etag="mnw77qE0MHQRA0DDI8vm" version="14.7.3" type="github">
  <diagram name="Page-1" id="0783ab3e-0a74-02c8-0abd-f7b4e66b4bec">
    <mxGraphModel dx="946" dy="645" grid="1" gridSize="10" guides="1" tooltips="1" connect="1" arrows="1" fold="1" page="1" pageScale="1" pageWidth="850" pageHeight="1100" background="none" math="0" shadow="0">
      <root>
        <mxCell id="0" />
        <mxCell id="1" parent="0" />
        <mxCell id="LfX3rPTwR216BLPydEUd-26" style="edgeStyle=orthogonalEdgeStyle;rounded=0;orthogonalLoop=1;jettySize=auto;html=1;exitX=0.5;exitY=1;exitDx=0;exitDy=0;entryX=0.5;entryY=0;entryDx=0;entryDy=0;" edge="1" parent="1" source="LfX3rPTwR216BLPydEUd-27" target="LfX3rPTwR216BLPydEUd-30">
          <mxGeometry relative="1" as="geometry" />
        </mxCell>
        <mxCell id="LfX3rPTwR216BLPydEUd-27" value="" style="ellipse;whiteSpace=wrap;html=1;rounded=0;shadow=0;comic=0;labelBackgroundColor=none;strokeWidth=1;fillColor=#000000;fontFamily=Verdana;fontSize=12;align=center;" vertex="1" parent="1">
          <mxGeometry x="320" y="110" width="40" height="40" as="geometry" />
        </mxCell>
        <mxCell id="LfX3rPTwR216BLPydEUd-28" value="" style="ellipse;whiteSpace=wrap;html=1;rounded=0;shadow=0;comic=0;labelBackgroundColor=none;strokeWidth=1;fillColor=#000000;fontFamily=Verdana;fontSize=12;align=center;" vertex="1" parent="1">
          <mxGeometry x="150" y="520" width="40" height="40" as="geometry" />
        </mxCell>
        <mxCell id="LfX3rPTwR216BLPydEUd-29" style="edgeStyle=orthogonalEdgeStyle;rounded=0;orthogonalLoop=1;jettySize=auto;html=1;exitX=0.5;exitY=1;exitDx=0;exitDy=0;entryX=0.5;entryY=0;entryDx=0;entryDy=0;" edge="1" parent="1" source="LfX3rPTwR216BLPydEUd-30" target="LfX3rPTwR216BLPydEUd-32">
          <mxGeometry relative="1" as="geometry" />
        </mxCell>
        <mxCell id="LfX3rPTwR216BLPydEUd-30" value="Favori Yazar&lt;br&gt;Listesini Oluştur" style="rounded=1;whiteSpace=wrap;html=1;" vertex="1" parent="1">
          <mxGeometry x="280" y="190" width="120" height="60" as="geometry" />
        </mxCell>
        <mxCell id="LfX3rPTwR216BLPydEUd-31" style="edgeStyle=orthogonalEdgeStyle;rounded=0;orthogonalLoop=1;jettySize=auto;html=1;exitX=0.5;exitY=1;exitDx=0;exitDy=0;" edge="1" parent="1" source="LfX3rPTwR216BLPydEUd-32" target="LfX3rPTwR216BLPydEUd-36">
          <mxGeometry relative="1" as="geometry" />
        </mxCell>
        <mxCell id="LfX3rPTwR216BLPydEUd-32" value="Favori Yazar&lt;br&gt;Listesini Görüntüle" style="rounded=1;whiteSpace=wrap;html=1;" vertex="1" parent="1">
          <mxGeometry x="280" y="300" width="120" height="60" as="geometry" />
        </mxCell>
        <mxCell id="LfX3rPTwR216BLPydEUd-33" style="edgeStyle=orthogonalEdgeStyle;rounded=0;orthogonalLoop=1;jettySize=auto;html=1;exitX=1;exitY=0.5;exitDx=0;exitDy=0;entryX=0.5;entryY=0;entryDx=0;entryDy=0;" edge="1" parent="1" source="LfX3rPTwR216BLPydEUd-36" target="LfX3rPTwR216BLPydEUd-40">
          <mxGeometry relative="1" as="geometry" />
        </mxCell>
        <mxCell id="LfX3rPTwR216BLPydEUd-34" value="Evet" style="edgeLabel;html=1;align=center;verticalAlign=middle;resizable=0;points=[];" vertex="1" connectable="0" parent="LfX3rPTwR216BLPydEUd-33">
          <mxGeometry x="-0.0936" relative="1" as="geometry">
            <mxPoint x="-47" y="50" as="offset" />
          </mxGeometry>
        </mxCell>
        <mxCell id="LfX3rPTwR216BLPydEUd-51" style="edgeStyle=orthogonalEdgeStyle;rounded=0;orthogonalLoop=1;jettySize=auto;html=1;exitX=0;exitY=0.5;exitDx=0;exitDy=0;entryX=0.5;entryY=0;entryDx=0;entryDy=0;" edge="1" parent="1" source="LfX3rPTwR216BLPydEUd-36" target="LfX3rPTwR216BLPydEUd-28">
          <mxGeometry relative="1" as="geometry" />
        </mxCell>
        <mxCell id="LfX3rPTwR216BLPydEUd-52" value="Hayır&lt;br&gt;" style="edgeLabel;html=1;align=center;verticalAlign=middle;resizable=0;points=[];" vertex="1" connectable="0" parent="LfX3rPTwR216BLPydEUd-51">
          <mxGeometry x="-0.1263" y="-3" relative="1" as="geometry">
            <mxPoint y="-12" as="offset" />
          </mxGeometry>
        </mxCell>
        <mxCell id="LfX3rPTwR216BLPydEUd-36" value="İşlem" style="rhombus;whiteSpace=wrap;html=1;" vertex="1" parent="1">
          <mxGeometry x="300" y="420" width="80" height="80" as="geometry" />
        </mxCell>
        <mxCell id="LfX3rPTwR216BLPydEUd-37" style="edgeStyle=orthogonalEdgeStyle;orthogonalLoop=1;jettySize=auto;html=1;exitX=0.25;exitY=1;exitDx=0;exitDy=0;entryX=0.5;entryY=0;entryDx=0;entryDy=0;curved=1;" edge="1" parent="1" source="LfX3rPTwR216BLPydEUd-40" target="LfX3rPTwR216BLPydEUd-42">
          <mxGeometry relative="1" as="geometry" />
        </mxCell>
        <mxCell id="LfX3rPTwR216BLPydEUd-38" style="edgeStyle=orthogonalEdgeStyle;curved=1;orthogonalLoop=1;jettySize=auto;html=1;exitX=0.5;exitY=1;exitDx=0;exitDy=0;entryX=0.5;entryY=0;entryDx=0;entryDy=0;" edge="1" parent="1" source="LfX3rPTwR216BLPydEUd-40" target="LfX3rPTwR216BLPydEUd-44">
          <mxGeometry relative="1" as="geometry" />
        </mxCell>
        <mxCell id="LfX3rPTwR216BLPydEUd-39" style="edgeStyle=orthogonalEdgeStyle;curved=1;orthogonalLoop=1;jettySize=auto;html=1;exitX=0.75;exitY=1;exitDx=0;exitDy=0;entryX=0.5;entryY=0;entryDx=0;entryDy=0;" edge="1" parent="1" source="LfX3rPTwR216BLPydEUd-40" target="LfX3rPTwR216BLPydEUd-46">
          <mxGeometry relative="1" as="geometry" />
        </mxCell>
        <mxCell id="LfX3rPTwR216BLPydEUd-40" value="" style="whiteSpace=wrap;html=1;rounded=0;shadow=0;comic=0;labelBackgroundColor=none;strokeWidth=1;fontFamily=Verdana;fontSize=12;align=center;rotation=0;fillColor=#000000;" vertex="1" parent="1">
          <mxGeometry x="560" y="440" width="147" height="10" as="geometry" />
        </mxCell>
        <mxCell id="LfX3rPTwR216BLPydEUd-41" style="edgeStyle=orthogonalEdgeStyle;curved=1;orthogonalLoop=1;jettySize=auto;html=1;exitX=0.5;exitY=1;exitDx=0;exitDy=0;entryX=0.374;entryY=-0.3;entryDx=0;entryDy=0;entryPerimeter=0;" edge="1" parent="1" source="LfX3rPTwR216BLPydEUd-42" target="LfX3rPTwR216BLPydEUd-48">
          <mxGeometry relative="1" as="geometry">
            <Array as="points">
              <mxPoint x="510" y="570" />
              <mxPoint x="358" y="570" />
            </Array>
          </mxGeometry>
        </mxCell>
        <mxCell id="LfX3rPTwR216BLPydEUd-42" value="Favori Yazar&lt;br&gt;Listesini Düzenle" style="rounded=1;whiteSpace=wrap;html=1;" vertex="1" parent="1">
          <mxGeometry x="450" y="500" width="120" height="40" as="geometry" />
        </mxCell>
        <mxCell id="LfX3rPTwR216BLPydEUd-43" style="edgeStyle=orthogonalEdgeStyle;curved=1;orthogonalLoop=1;jettySize=auto;html=1;exitX=0;exitY=0.5;exitDx=0;exitDy=0;entryX=0.551;entryY=0.1;entryDx=0;entryDy=0;entryPerimeter=0;strokeColor=#000000;" edge="1" parent="1" source="LfX3rPTwR216BLPydEUd-44" target="LfX3rPTwR216BLPydEUd-48">
          <mxGeometry relative="1" as="geometry" />
        </mxCell>
        <mxCell id="LfX3rPTwR216BLPydEUd-44" value="Favori Yazar Listesinden Yazar Çıkart" style="rounded=1;whiteSpace=wrap;html=1;" vertex="1" parent="1">
          <mxGeometry x="573.5" y="580" width="120" height="40" as="geometry" />
        </mxCell>
        <mxCell id="LfX3rPTwR216BLPydEUd-45" style="edgeStyle=orthogonalEdgeStyle;curved=1;orthogonalLoop=1;jettySize=auto;html=1;exitX=0.5;exitY=1;exitDx=0;exitDy=0;entryX=0.932;entryY=-0.2;entryDx=0;entryDy=0;entryPerimeter=0;strokeColor=#000000;" edge="1" parent="1" source="LfX3rPTwR216BLPydEUd-46" target="LfX3rPTwR216BLPydEUd-48">
          <mxGeometry relative="1" as="geometry">
            <Array as="points">
              <mxPoint x="770" y="540" />
              <mxPoint x="770" y="630" />
              <mxPoint x="440" y="630" />
            </Array>
          </mxGeometry>
        </mxCell>
        <mxCell id="LfX3rPTwR216BLPydEUd-46" value="Favori Yazar Listesine Yazar Ekle" style="rounded=1;whiteSpace=wrap;html=1;" vertex="1" parent="1">
          <mxGeometry x="700" y="500" width="120" height="40" as="geometry" />
        </mxCell>
        <mxCell id="LfX3rPTwR216BLPydEUd-47" style="edgeStyle=orthogonalEdgeStyle;curved=1;orthogonalLoop=1;jettySize=auto;html=1;exitX=0.5;exitY=1;exitDx=0;exitDy=0;entryX=0.5;entryY=0;entryDx=0;entryDy=0;" edge="1" parent="1" source="LfX3rPTwR216BLPydEUd-48" target="LfX3rPTwR216BLPydEUd-50">
          <mxGeometry relative="1" as="geometry" />
        </mxCell>
        <mxCell id="LfX3rPTwR216BLPydEUd-48" value="" style="whiteSpace=wrap;html=1;rounded=0;shadow=0;comic=0;labelBackgroundColor=none;strokeWidth=1;fontFamily=Verdana;fontSize=12;align=center;rotation=0;fillColor=#000000;" vertex="1" parent="1">
          <mxGeometry x="303" y="640" width="147" height="10" as="geometry" />
        </mxCell>
        <mxCell id="LfX3rPTwR216BLPydEUd-53" style="edgeStyle=orthogonalEdgeStyle;rounded=0;orthogonalLoop=1;jettySize=auto;html=1;entryX=0.5;entryY=1;entryDx=0;entryDy=0;" edge="1" parent="1" source="LfX3rPTwR216BLPydEUd-50" target="LfX3rPTwR216BLPydEUd-28">
          <mxGeometry relative="1" as="geometry" />
        </mxCell>
        <mxCell id="LfX3rPTwR216BLPydEUd-50" value="Favori Yazar Listesini Görüntüle" style="rounded=1;whiteSpace=wrap;html=1;" vertex="1" parent="1">
          <mxGeometry x="316.5" y="680" width="120" height="60" as="geometry" />
        </mxCell>
      </root>
    </mxGraphModel>
  </diagram>
</mxfile>
